<?xml version="1.0" standalone="no"?>
<!DOCTYPE svg PUBLIC "-//W3C//DTD SVG 20010904//EN"
 "http://www.w3.org/TR/2001/REC-SVG-20010904/DTD/svg10.dtd">
<svg version="1.0" xmlns="http://www.w3.org/2000/svg"
 width="4675.000000pt" height="4675.000000pt" viewBox="0 0 4675.000000 4675.000000"
 preserveAspectRatio="xMidYMid meet">
<metadata>
Created by potrace 1.16, written by Peter Selinger 2001-2019
</metadata>
<g transform="translate(0.000000,4675.000000) scale(0.100000,-0.100000)"
fill="#000000" stroke="none">
<path d="M14020 34285 l0 -2335 885 0 885 0 0 2335 0 2335 -885 0 -885 0 0
-2335z"/>
<path d="M30960 34285 l0 -2335 885 0 885 0 0 2335 0 2335 -885 0 -885 0 0
-2335z"/>
<path d="M8060 19274 c0 -8748 -5 -8011 61 -8263 191 -724 774 -1256 1522
-1388 98 -17 654 -18 13732 -18 13222 0 13633 1 13735 19 757 133 1340 676
1529 1423 55 216 51 -392 51 8227 l0 7936 -15315 0 -15315 0 0 -7936z m11840
4711 l0 -1955 -2195 0 -2195 0 0 1955 0 1955 2195 0 2195 0 0 -1955z m5670 0
l0 -1955 -2195 0 -2195 0 0 1955 0 1955 2195 0 2195 0 0 -1955z m5670 0 l0
-1955 -2195 0 -2195 0 0 1955 0 1955 2195 0 2195 0 0 -1955z m5680 0 l0 -1955
-2200 0 -2200 0 0 1955 0 1955 2200 0 2200 0 0 -1955z m-22690 -4980 l0 -1955
-2195 0 -2195 0 0 1955 0 1955 2195 0 2195 0 0 -1955z m5670 0 l0 -1955 -2195
0 -2195 0 0 1955 0 1955 2195 0 2195 0 0 -1955z m5670 0 l0 -1955 -2195 0
-2195 0 0 1955 0 1955 2195 0 2195 0 0 -1955z m5675 0 l0 -1950 -2197 -3
-2198 -2 0 1955 0 1955 2198 -2 2197 -3 0 -1950z m5675 0 l0 -1955 -2200 0
-2200 0 0 1955 0 1955 2200 0 2200 0 0 -1955z m-22690 -4980 l0 -1955 -2195 0
-2195 0 0 1955 0 1955 2195 0 2195 0 0 -1955z m5670 0 l0 -1955 -2197 2 -2198
3 -3 1940 c-1 1067 0 1946 3 1953 3 9 453 12 2200 12 l2195 0 0 -1955z m5670
0 l0 -1955 -2195 0 -2195 0 0 1955 0 1955 2195 0 2195 0 0 -1955z m5670 0 l0
-1955 -2195 0 -2195 0 0 1955 0 1955 2195 0 2195 0 0 -1955z"/>
</g>
</svg>
